<?xml version="1.0" standalone="no"?>
<!DOCTYPE svg PUBLIC "-//W3C//DTD SVG 20010904//EN"
 "http://www.w3.org/TR/2001/REC-SVG-20010904/DTD/svg10.dtd">
<svg version="1.0" xmlns="http://www.w3.org/2000/svg"
 width="759.000000pt" height="759.000000pt" viewBox="0 0 759.000000 759.000000"
 preserveAspectRatio="xMidYMid meet">
<metadata>
Created by potrace 1.11, written by Peter Selinger 2001-2013
</metadata>
<g transform="translate(0.000000,759.000000) scale(0.100000,-0.100000)"
fill="#000000" stroke="none">
<path d="M3395 7426 c-538 -58 -1049 -227 -1495 -494 -621 -372 -1125 -934
-1421 -1584 -156 -343 -252 -674 -306 -1058 -25 -181 -25 -700 0 -890 143
-1067 714 -1987 1594 -2568 501 -330 1096 -534 1706 -583 186 -15 571 -7 732
15 1057 145 1972 716 2550 1591 301 456 484 941 567 1505 20 136 22 194 22
475 0 249 -4 349 -17 450 -91 677 -352 1290 -769 1813 -129 160 -387 419 -543
543 -527 421 -1134 681 -1805 774 -156 22 -652 28 -815 11z m523 -2801 c305
-60 566 -326 622 -635 78 -430 -200 -847 -623 -936 -258 -54 -526 22 -719 204
-165 156 -250 355 -249 586 1 226 85 422 248 577 194 185 447 257 721 204z
m-1123 -912 c40 -321 267 -622 570 -755 133 -59 206 -73 385 -73 179 0 252 14
385 73 303 133 530 434 570 755 l7 57 1239 0 1239 0 0 -78 c0 -179 -46 -494
-105 -719 -191 -720 -588 -1337 -1167 -1810 -516 -421 -1179 -692 -1843 -753
-170 -16 -515 -13 -680 4 -1368 148 -2501 1065 -2924 2368 -96 297 -151 604
-163 926 l-3 62 1241 0 1242 0 7 -57z"/>
</g>
</svg>
